<svg width="36" height="36" viewBox="0 0 36 36" fill="none" xmlns="http://www.w3.org/2000/svg">
<g opacity="0.6">
<circle cx="18" cy="18" r="18" fill="url(#paint0_linear_2182_3544)"/>
<path opacity="0.6" d="M15.2584 6.42191L31.7096 21.8925C32.0382 22.2019 32.1243 22.6923 31.9239 23.1179C31.7275 23.5171 31.2605 23.7486 30.8122 23.6895L21.0774 22.4062L16.3538 12.7382L18.9507 22.9239L11.9322 29.3147C11.5891 29.6155 11.1206 29.6868 10.7234 29.4744C10.321 29.2883 10.0909 28.8589 10.1594 28.4159L13.4671 7.03688C13.5276 6.6458 13.7953 6.30906 14.1926 6.17436C14.5599 6.06378 14.9783 6.14494 15.2584 6.42191Z" fill="#8F6566"/>
</g>
<defs>
<linearGradient id="paint0_linear_2182_3544" x1="10.1613" y1="-4.94408e-07" x2="33.5056" y2="34.9513" gradientUnits="userSpaceOnUse">
<stop stop-color="#FFBDC7"/>
<stop offset="1" stop-color="#FFD4C7"/>
</linearGradient>
</defs>
</svg>
